<svg width="218" height="210" viewBox="0 0 218 210" fill="none" xmlns="http://www.w3.org/2000/svg">
<g clip-path="url(#clip0_200_418)">
<mask id="mask0_200_418" style="mask-type:luminance" maskUnits="userSpaceOnUse" x="0" y="0" width="218" height="210">
<path d="M206 0H12C5.37258 0 0 5.37258 0 12V198C0 204.627 5.37258 210 12 210H206C212.627 210 218 204.627 218 198V12C218 5.37258 212.627 0 206 0Z" fill="white"/>
</mask>
<g mask="url(#mask0_200_418)">
<path d="M18 10.5H152C156.142 10.5 159.5 13.8579 159.5 18V42C159.5 46.1421 156.142 49.5 152 49.5H18C13.8579 49.5 10.5 46.1421 10.5 42V18C10.5 13.8579 13.8579 10.5 18 10.5Z" fill="#CCFFCC" stroke="#4D4C78"/>
<path d="M152 10.5H18C13.8579 10.5 10.5 13.8579 10.5 18V42C10.5 46.1421 13.8579 49.5 18 49.5H152C156.142 49.5 159.5 46.1421 159.5 42V18C159.5 13.8579 156.142 10.5 152 10.5Z" stroke="#52E052" stroke-opacity="0.7"/>
<path d="M18 60.5H115C119.142 60.5 122.5 63.8579 122.5 68V92C122.5 96.1421 119.142 99.5 115 99.5H18C13.8579 99.5 10.5 96.1421 10.5 92V68C10.5 63.8579 13.8579 60.5 18 60.5Z" fill="#CCFFCC" stroke="#4D4C78"/>
<path d="M115 60.5H18C13.8579 60.5 10.5 63.8579 10.5 68V92C10.5 96.1421 13.8579 99.5 18 99.5H115C119.142 99.5 122.5 96.1421 122.5 92V68C122.5 63.8579 119.142 60.5 115 60.5Z" stroke="#52E052" stroke-opacity="0.7"/>
<path d="M18 110.5H77C81.1421 110.5 84.5 113.858 84.5 118V142C84.5 146.142 81.1421 149.5 77 149.5H18C13.8579 149.5 10.5 146.142 10.5 142V118C10.5 113.858 13.8579 110.5 18 110.5Z" fill="#CCFFCC" stroke="#4D4C78"/>
<path d="M77 110.5H18C13.8579 110.5 10.5 113.858 10.5 118V142C10.5 146.142 13.8579 149.5 18 149.5H77C81.1421 149.5 84.5 146.142 84.5 142V118C84.5 113.858 81.1421 110.5 77 110.5Z" stroke="#52E052" stroke-opacity="0.7"/>
<path d="M18 160.5H40C44.1421 160.5 47.5 163.858 47.5 168V192C47.5 196.142 44.1421 199.5 40 199.5H18C13.8579 199.5 10.5 196.142 10.5 192V168C10.5 163.858 13.8579 160.5 18 160.5Z" fill="#CCFFCC" stroke="#4D4C78"/>
<path d="M40 160.5H18C13.8579 160.5 10.5 163.858 10.5 168V192C10.5 196.142 13.8579 199.5 18 199.5H40C44.1421 199.5 47.5 196.142 47.5 192V168C47.5 163.858 44.1421 160.5 40 160.5Z" stroke="#52E052" stroke-opacity="0.7"/>
<path d="M200 199.498L66 199.498C61.8579 199.498 58.5 196.14 58.5 191.998V167.998C58.5 163.856 61.8579 160.498 66 160.498H200C204.142 160.498 207.5 163.856 207.5 167.998V191.998C207.5 196.14 204.142 199.498 200 199.498Z" fill="#F5F2F0" stroke="#4D4C78"/>
<path d="M66 199.498L200 199.498C204.142 199.498 207.5 196.14 207.5 191.998V167.998C207.5 163.856 204.142 160.498 200 160.498H66C61.8579 160.498 58.5 163.856 58.5 167.998V191.998C58.5 196.14 61.8579 199.498 66 199.498Z" stroke="#E0CB52" stroke-opacity="0.7"/>
<path d="M200 149.498H103C98.8579 149.498 95.5 146.14 95.5 141.998V117.998C95.5 113.856 98.8579 110.498 103 110.498L200 110.498C204.142 110.498 207.5 113.856 207.5 117.998V141.998C207.5 146.14 204.142 149.498 200 149.498Z" fill="#F5F2F0" stroke="#4D4C78"/>
<path d="M103 149.498H200C204.142 149.498 207.5 146.14 207.5 141.998V117.998C207.5 113.856 204.142 110.498 200 110.498L103 110.498C98.8579 110.498 95.5 113.856 95.5 117.998V141.998C95.5 146.14 98.8579 149.498 103 149.498Z" stroke="#E0CB52" stroke-opacity="0.7"/>
<path d="M200 99.498L141 99.498C136.858 99.498 133.5 96.1402 133.5 91.998V67.998C133.5 63.8559 136.858 60.498 141 60.498L200 60.498C204.142 60.498 207.5 63.8559 207.5 67.998V91.998C207.5 96.1402 204.142 99.498 200 99.498Z" fill="#F5F2F0" stroke="#4D4C78"/>
<path d="M141 99.498L200 99.498C204.142 99.498 207.5 96.1402 207.5 91.998V67.9981C207.5 63.8559 204.142 60.4981 200 60.4981L141 60.4981C136.858 60.4981 133.5 63.8559 133.5 67.9981V91.998C133.5 96.1402 136.858 99.498 141 99.498Z" stroke="#E0CB52" stroke-opacity="0.7"/>
<path d="M200 49.498L178 49.498C173.858 49.498 170.5 46.1402 170.5 41.998V18.001C170.5 13.859 173.858 10.501 178 10.501L200 10.501C204.142 10.501 207.5 13.859 207.5 18.001V41.998C207.5 46.1402 204.142 49.498 200 49.498Z" fill="#F5F2F0" stroke="#4D4C78"/>
<path d="M178 49.498L200 49.498C204.142 49.498 207.5 46.1402 207.5 41.998V18.0012C207.5 13.8591 204.142 10.5012 200 10.5012L178 10.5012C173.858 10.5012 170.5 13.8591 170.5 18.0012V41.998C170.5 46.1402 173.858 49.498 178 49.498Z" stroke="#E0CB52" stroke-opacity="0.7"/>
</g>
</g>
<defs>
<clipPath id="clip0_200_418">
<rect width="218" height="210" fill="white"/>
</clipPath>
</defs>
</svg>
