<svg width="218" height="210" viewBox="0 0 218 210" fill="none" xmlns="http://www.w3.org/2000/svg">
<g clip-path="url(#clip0_3_34)">
<rect x="10" y="10" width="150" height="40" rx="8" fill="#CCFFCC"/>
<rect x="10.5" y="10.5" width="149" height="39" rx="7.5" stroke="#52E052" stroke-opacity="0.7"/>
<rect x="10" y="60" width="113" height="40" rx="8" fill="#CCFFCC"/>
<rect x="10.5" y="60.5" width="112" height="39" rx="7.5" stroke="#52E052" stroke-opacity="0.7"/>
<rect x="10" y="110" width="75" height="40" rx="8" fill="#CCFFCC"/>
<rect x="10.5" y="110.5" width="74" height="39" rx="7.5" stroke="#52E052" stroke-opacity="0.7"/>
<rect x="10" y="160" width="38" height="40" rx="8" fill="#CCFFCC"/>
<rect x="10.5" y="160.5" width="37" height="39" rx="7.5" stroke="#52E052" stroke-opacity="0.7"/>
<rect x="208" y="199.997" width="150" height="40" rx="8" transform="rotate(180 208 199.997)" fill="#F5F2F0"/>
<rect x="207.5" y="199.497" width="149" height="39" rx="7.5" transform="rotate(180 207.5 199.497)" stroke="#E0CB52" stroke-opacity="0.7"/>
<rect x="208" y="149.997" width="113" height="40" rx="8" transform="rotate(180 208 149.997)" fill="#F5F2F0"/>
<rect x="207.5" y="149.497" width="112" height="39" rx="7.5" transform="rotate(180 207.5 149.497)" stroke="#E0CB52" stroke-opacity="0.7"/>
<rect x="208" y="99.9968" width="75" height="40" rx="8" transform="rotate(180 208 99.9968)" fill="#F5F2F0"/>
<rect x="207.5" y="99.4968" width="74" height="39" rx="7.5" transform="rotate(180 207.5 99.4968)" stroke="#E0CB52" stroke-opacity="0.7"/>
<rect x="208" y="49.9968" width="38" height="39.9968" rx="8" transform="rotate(180 208 49.9968)" fill="#F5F2F0"/>
<rect x="207.5" y="49.4968" width="37" height="38.9968" rx="7.5" transform="rotate(180 207.5 49.4968)" stroke="#E0CB52" stroke-opacity="0.7"/>
</g>
<defs>
<clipPath id="clip0_3_34">
<rect width="218" height="210" rx="12" fill="white"/>
</clipPath>
</defs>
</svg>
